<?xml version="1.0" encoding="utf-8"?>
<svg xmlns="http://www.w3.org/2000/svg" xmlns:xlink="http://www.w3.org/1999/xlink" width="780" height="400" viewBox="0 0 3120 1600">
<defs>
  <clipPath id="clip9600">
    <rect x="0" y="0" width="3120" height="1600"/>
  </clipPath>
</defs>
<polygon clip-path="url(#clip9600)" points="
0,1600 3120,1600 3120,0 0,0 
  " fill="#d3d3d3" fill-rule="evenodd" fill-opacity="1"/>
<defs>
  <clipPath id="clip9601">
    <rect x="624" y="0" width="2185" height="1600"/>
  </clipPath>
</defs>
<polygon clip-path="url(#clip9600)" points="
201.241,1495.21 3072.76,1495.21 3072.76,47.2441 201.241,47.2441 
  " fill="#d3d3d3" fill-rule="evenodd" fill-opacity="1"/>
<defs>
  <clipPath id="clip9602">
    <rect x="201" y="47" width="2873" height="1449"/>
  </clipPath>
</defs>
<polyline clip-path="url(#clip9602)" style="stroke:#000000; stroke-width:2; stroke-opacity:0.1; fill:none" points="
  282.511,1495.21 282.511,47.2441 
  "/>
<polyline clip-path="url(#clip9602)" style="stroke:#000000; stroke-width:2; stroke-opacity:0.1; fill:none" points="
  966.596,1495.21 966.596,47.2441 
  "/>
<polyline clip-path="url(#clip9602)" style="stroke:#000000; stroke-width:2; stroke-opacity:0.1; fill:none" points="
  1650.68,1495.21 1650.68,47.2441 
  "/>
<polyline clip-path="url(#clip9602)" style="stroke:#000000; stroke-width:2; stroke-opacity:0.1; fill:none" points="
  2334.77,1495.21 2334.77,47.2441 
  "/>
<polyline clip-path="url(#clip9602)" style="stroke:#000000; stroke-width:2; stroke-opacity:0.1; fill:none" points="
  3018.85,1495.21 3018.85,47.2441 
  "/>
<polyline clip-path="url(#clip9602)" style="stroke:#000000; stroke-width:2; stroke-opacity:0.1; fill:none" points="
  201.241,1454.23 3072.76,1454.23 
  "/>
<polyline clip-path="url(#clip9602)" style="stroke:#000000; stroke-width:2; stroke-opacity:0.1; fill:none" points="
  201.241,1151.75 3072.76,1151.75 
  "/>
<polyline clip-path="url(#clip9602)" style="stroke:#000000; stroke-width:2; stroke-opacity:0.1; fill:none" points="
  201.241,849.269 3072.76,849.269 
  "/>
<polyline clip-path="url(#clip9602)" style="stroke:#000000; stroke-width:2; stroke-opacity:0.1; fill:none" points="
  201.241,546.787 3072.76,546.787 
  "/>
<polyline clip-path="url(#clip9602)" style="stroke:#000000; stroke-width:2; stroke-opacity:0.1; fill:none" points="
  201.241,244.305 3072.76,244.305 
  "/>
<polyline clip-path="url(#clip9600)" style="stroke:#000000; stroke-width:4; stroke-opacity:1; fill:none" points="
  201.241,1495.21 3072.76,1495.21 
  "/>
<polyline clip-path="url(#clip9600)" style="stroke:#000000; stroke-width:4; stroke-opacity:1; fill:none" points="
  201.241,1495.21 201.241,47.2441 
  "/>
<polyline clip-path="url(#clip9600)" style="stroke:#000000; stroke-width:4; stroke-opacity:1; fill:none" points="
  282.511,1495.21 282.511,1473.49 
  "/>
<polyline clip-path="url(#clip9600)" style="stroke:#000000; stroke-width:4; stroke-opacity:1; fill:none" points="
  966.596,1495.21 966.596,1473.49 
  "/>
<polyline clip-path="url(#clip9600)" style="stroke:#000000; stroke-width:4; stroke-opacity:1; fill:none" points="
  1650.68,1495.21 1650.68,1473.49 
  "/>
<polyline clip-path="url(#clip9600)" style="stroke:#000000; stroke-width:4; stroke-opacity:1; fill:none" points="
  2334.77,1495.21 2334.77,1473.49 
  "/>
<polyline clip-path="url(#clip9600)" style="stroke:#000000; stroke-width:4; stroke-opacity:1; fill:none" points="
  3018.85,1495.21 3018.85,1473.49 
  "/>
<polyline clip-path="url(#clip9600)" style="stroke:#000000; stroke-width:4; stroke-opacity:1; fill:none" points="
  201.241,1454.23 244.314,1454.23 
  "/>
<polyline clip-path="url(#clip9600)" style="stroke:#000000; stroke-width:4; stroke-opacity:1; fill:none" points="
  201.241,1151.75 244.314,1151.75 
  "/>
<polyline clip-path="url(#clip9600)" style="stroke:#000000; stroke-width:4; stroke-opacity:1; fill:none" points="
  201.241,849.269 244.314,849.269 
  "/>
<polyline clip-path="url(#clip9600)" style="stroke:#000000; stroke-width:4; stroke-opacity:1; fill:none" points="
  201.241,546.787 244.314,546.787 
  "/>
<polyline clip-path="url(#clip9600)" style="stroke:#000000; stroke-width:4; stroke-opacity:1; fill:none" points="
  201.241,244.305 244.314,244.305 
  "/>
<g clip-path="url(#clip9600)">
<text style="fill:#000000; fill-opacity:1; font-family:Arial,Helvetica Neue,Helvetica,sans-serif; font-size:48px; text-anchor:middle;" transform="rotate(0, 282.511, 1552.81)" x="282.511" y="1552.81">0</text>
</g>
<g clip-path="url(#clip9600)">
<text style="fill:#000000; fill-opacity:1; font-family:Arial,Helvetica Neue,Helvetica,sans-serif; font-size:48px; text-anchor:middle;" transform="rotate(0, 966.596, 1552.81)" x="966.596" y="1552.81">2500</text>
</g>
<g clip-path="url(#clip9600)">
<text style="fill:#000000; fill-opacity:1; font-family:Arial,Helvetica Neue,Helvetica,sans-serif; font-size:48px; text-anchor:middle;" transform="rotate(0, 1650.68, 1552.81)" x="1650.68" y="1552.81">5000</text>
</g>
<g clip-path="url(#clip9600)">
<text style="fill:#000000; fill-opacity:1; font-family:Arial,Helvetica Neue,Helvetica,sans-serif; font-size:48px; text-anchor:middle;" transform="rotate(0, 2334.77, 1552.81)" x="2334.77" y="1552.81">7500</text>
</g>
<g clip-path="url(#clip9600)">
<text style="fill:#000000; fill-opacity:1; font-family:Arial,Helvetica Neue,Helvetica,sans-serif; font-size:48px; text-anchor:middle;" transform="rotate(0, 3018.85, 1552.81)" x="3018.85" y="1552.81">10000</text>
</g>
<g clip-path="url(#clip9600)">
<text style="fill:#000000; fill-opacity:1; font-family:Arial,Helvetica Neue,Helvetica,sans-serif; font-size:48px; text-anchor:end;" transform="rotate(0, 170.041, 1471.73)" x="170.041" y="1471.73">0</text>
</g>
<g clip-path="url(#clip9600)">
<text style="fill:#000000; fill-opacity:1; font-family:Arial,Helvetica Neue,Helvetica,sans-serif; font-size:48px; text-anchor:end;" transform="rotate(0, 170.041, 1169.25)" x="170.041" y="1169.25">500</text>
</g>
<g clip-path="url(#clip9600)">
<text style="fill:#000000; fill-opacity:1; font-family:Arial,Helvetica Neue,Helvetica,sans-serif; font-size:48px; text-anchor:end;" transform="rotate(0, 170.041, 866.769)" x="170.041" y="866.769">1000</text>
</g>
<g clip-path="url(#clip9600)">
<text style="fill:#000000; fill-opacity:1; font-family:Arial,Helvetica Neue,Helvetica,sans-serif; font-size:48px; text-anchor:end;" transform="rotate(0, 170.041, 564.287)" x="170.041" y="564.287">1500</text>
</g>
<g clip-path="url(#clip9600)">
<text style="fill:#000000; fill-opacity:1; font-family:Arial,Helvetica Neue,Helvetica,sans-serif; font-size:48px; text-anchor:end;" transform="rotate(0, 170.041, 261.805)" x="170.041" y="261.805">2000</text>
</g>
<polyline clip-path="url(#clip9602)" style="stroke:#808080; stroke-width:4; stroke-opacity:1; fill:none" stroke-dasharray="2, 4" points="
  282.511,1454.23 2991.49,1454.23 
  "/>
<polyline clip-path="url(#clip9602)" style="stroke:#808080; stroke-width:4; stroke-opacity:1; fill:none" stroke-dasharray="2, 4" points="
  282.511,1266.69 2991.49,1266.69 
  "/>
<polyline clip-path="url(#clip9602)" style="stroke:#808080; stroke-width:4; stroke-opacity:1; fill:none" stroke-dasharray="2, 4" points="
  282.511,1045.88 2991.49,1045.88 
  "/>
<polyline clip-path="url(#clip9602)" style="stroke:#808080; stroke-width:4; stroke-opacity:1; fill:none" stroke-dasharray="2, 4" points="
  282.511,803.897 2991.49,803.897 
  "/>
<polyline clip-path="url(#clip9602)" style="stroke:#808080; stroke-width:4; stroke-opacity:1; fill:none" stroke-dasharray="2, 4" points="
  282.511,561.911 2991.49,561.911 
  "/>
<polyline clip-path="url(#clip9602)" style="stroke:#808080; stroke-width:4; stroke-opacity:1; fill:none" stroke-dasharray="2, 4" points="
  282.511,398.571 2991.49,398.571 
  "/>
<polyline clip-path="url(#clip9602)" style="stroke:#808080; stroke-width:4; stroke-opacity:1; fill:none" stroke-dasharray="2, 4" points="
  282.511,271.528 2991.49,271.528 
  "/>
<polyline clip-path="url(#clip9602)" style="stroke:#808080; stroke-width:4; stroke-opacity:1; fill:none" stroke-dasharray="16, 10" points="
  282.511,88.2244 2991.49,88.2244 
  "/>
<circle clip-path="url(#clip9602)" style="fill:#1a0b40; stroke:none; fill-opacity:1" cx="282.511" cy="1045.88" r="9"/>
<polyline clip-path="url(#clip9602)" style="stroke:#1a0b40; stroke-width:4; stroke-opacity:1; fill:none" points="
  282.511,1045.88 1637,1045.88 
  "/>
<circle clip-path="url(#clip9602)" style="fill:#1a0b40; stroke:none; fill-opacity:1" cx="282.511" cy="803.897" r="9"/>
<polyline clip-path="url(#clip9602)" style="stroke:#1a0b40; stroke-width:4; stroke-opacity:1; fill:none" points="
  282.511,803.897 1637,803.897 
  "/>
<circle clip-path="url(#clip9602)" style="fill:#4b0c6a; stroke:none; fill-opacity:1" cx="282.511" cy="1266.69" r="9"/>
<polyline clip-path="url(#clip9602)" style="stroke:#4b0c6a; stroke-width:4; stroke-opacity:1; fill:none" points="
  282.511,1266.69 1637,1266.69 
  "/>
<circle clip-path="url(#clip9602)" style="fill:#a42c60; stroke:none; fill-opacity:1" cx="282.511" cy="1454.23" r="9"/>
<polyline clip-path="url(#clip9602)" style="stroke:#a42c60; stroke-width:4; stroke-opacity:1; fill:none" points="
  282.511,1454.23 1637,1454.23 
  "/>
<circle clip-path="url(#clip9602)" style="fill:#ec6925; stroke:none; fill-opacity:1" cx="282.511" cy="271.528" r="9"/>
<polyline clip-path="url(#clip9602)" style="stroke:#ec6925; stroke-width:4; stroke-opacity:1; fill:none" points="
  282.511,271.528 1637,271.528 
  "/>
<circle clip-path="url(#clip9602)" style="fill:#fa9907; stroke:none; fill-opacity:1" cx="1637" cy="1454.23" r="9"/>
<polyline clip-path="url(#clip9602)" style="stroke:#fa9907; stroke-width:4; stroke-opacity:1; fill:none" points="
  1637,1454.23 2991.49,1454.23 
  "/>
<circle clip-path="url(#clip9602)" style="fill:#fa9907; stroke:none; fill-opacity:1" cx="1637" cy="1266.69" r="9"/>
<polyline clip-path="url(#clip9602)" style="stroke:#fa9907; stroke-width:4; stroke-opacity:1; fill:none" points="
  1637,1266.69 2991.49,1266.69 
  "/>
<circle clip-path="url(#clip9602)" style="fill:#fa9907; stroke:none; fill-opacity:1" cx="1637" cy="1045.88" r="9"/>
<polyline clip-path="url(#clip9602)" style="stroke:#fa9907; stroke-width:4; stroke-opacity:1; fill:none" points="
  1637,1045.88 2991.49,1045.88 
  "/>
<circle clip-path="url(#clip9602)" style="fill:#fa9907; stroke:none; fill-opacity:1" cx="1637" cy="803.897" r="9"/>
<polyline clip-path="url(#clip9602)" style="stroke:#fa9907; stroke-width:4; stroke-opacity:1; fill:none" points="
  1637,803.897 2991.49,803.897 
  "/>
<circle clip-path="url(#clip9602)" style="fill:#fa9907; stroke:none; fill-opacity:1" cx="1637" cy="561.911" r="9"/>
<polyline clip-path="url(#clip9602)" style="stroke:#fa9907; stroke-width:4; stroke-opacity:1; fill:none" points="
  1637,561.911 2991.49,561.911 
  "/>
<circle clip-path="url(#clip9602)" style="fill:#fa9907; stroke:none; fill-opacity:1" cx="1637" cy="398.571" r="9"/>
<polyline clip-path="url(#clip9602)" style="stroke:#fa9907; stroke-width:4; stroke-opacity:1; fill:none" points="
  1637,398.571 2991.49,398.571 
  "/>
<circle clip-path="url(#clip9602)" style="fill:#fa9907; stroke:none; fill-opacity:1" cx="1637" cy="271.528" r="9"/>
<polyline clip-path="url(#clip9602)" style="stroke:#fa9907; stroke-width:4; stroke-opacity:1; fill:none" points="
  1637,271.528 2991.49,271.528 
  "/>
<circle clip-path="url(#clip9602)" style="fill:#f7d13d; stroke:none; fill-opacity:1" cx="282.511" cy="398.571" r="9"/>
<polyline clip-path="url(#clip9602)" style="stroke:#f7d13d; stroke-width:4; stroke-opacity:1; fill:none" points="
  282.511,398.571 1637,398.571 
  "/>
<circle clip-path="url(#clip9602)" style="fill:#fcfea4; stroke:none; fill-opacity:1" cx="282.511" cy="561.911" r="9"/>
<polyline clip-path="url(#clip9602)" style="stroke:#fcfea4; stroke-width:4; stroke-opacity:1; fill:none" points="
  282.511,561.911 1637,561.911 
  "/>
</svg>
